<svg width="21" height="19" viewBox="0 0 21 19" fill="none" xmlns="http://www.w3.org/2000/svg">
<path d="M20.6699 7.81901C20.8189 8.78401 18.1148 9.81202 16.1368 8.08502C15.2218 9.18502 12.9598 9.50401 11.0028 8.11201C10.2193 8.72219 9.24498 9.03504 8.25275 8.99501C7.3268 8.98817 6.43371 8.65133 5.73383 8.04502C4.28583 9.59102 0.11681 9.33801 0.48481 7.69301C0.87281 5.95901 2.19377 0.993012 2.51777 0.983012C2.84177 0.973012 17.4108 1.12601 17.8018 1.19301C18.1928 1.26001 20.5689 7.17001 20.6699 7.81901Z" fill="#696158"/>
<path d="M19.7478 17.539C19.7652 17.6728 19.742 17.8087 19.6809 17.929C19.4949 18.215 16.4209 18.114 15.7119 18.129C14.868 18.1923 14.0209 18.201 13.1759 18.155C13.0759 18.092 13.9098 12.912 10.4538 12.991C6.99785 13.07 8.57482 18.058 8.32982 18.21C8.18982 18.296 1.68187 18.096 1.62987 18.04C1.57787 17.984 1.82982 10.555 1.82982 10.555C2.5097 10.7024 3.21414 10.6941 3.89037 10.5308C4.5666 10.3675 5.19715 10.0534 5.73485 9.612C6.43473 10.2183 7.32794 10.5552 8.25389 10.562C9.24612 10.602 10.2204 10.2892 11.0039 9.679C12.9609 11.07 15.2228 10.757 16.1378 9.652C17.2708 10.641 19.5788 10.437 19.5788 10.437C19.5788 10.437 19.6608 14.974 19.7478 17.539Z" fill="#696158"/>
</svg>
