<svg width="15" height="20" viewBox="0 0 15 20" fill="none" xmlns="http://www.w3.org/2000/svg">
<path d="M12.6318 11.583C12.0905 10.8238 11.3824 10.1988 10.5619 9.756C10.1485 9.52924 9.70704 9.35809 9.24887 9.24699C9.88726 8.99222 10.4564 8.59022 10.91 8.07375C11.3636 7.55728 11.6887 6.94095 11.8589 6.27499C12.0884 5.45924 12.0841 4.59538 11.8464 3.78197C11.6087 2.96856 11.147 2.23834 10.5142 1.67461C9.8815 1.11088 9.10314 0.736343 8.26779 0.593723C7.43243 0.451102 6.57383 0.54614 5.78988 0.867995C4.94998 1.25188 4.23814 1.86915 3.73922 2.64625C3.2403 3.42336 2.97525 4.32752 2.97579 5.25099C2.97115 6.0811 3.23009 6.89125 3.7153 7.5648C4.20051 8.23834 4.88702 8.74051 5.67587 8.99899C4.78796 9.12035 3.94826 9.47553 3.24276 10.0282C2.53727 10.5808 1.99132 11.311 1.66085 12.144C0.892751 13.9076 0.532821 15.8219 0.607874 17.744C0.668874 17.827 8.45386 20.727 14.1659 17.431C14.4519 17.271 14.1368 13.719 12.6318 11.583Z" fill="#696158"/>
</svg>
