<svg width="27" height="18" viewBox="0 0 27 18" fill="none" xmlns="http://www.w3.org/2000/svg">
<path d="M26.673 11.683C26.793 10.942 27.1531 7.49798 23.8061 6.26298C23.4061 6.11698 23 5.99399 22.606 5.87599C21.9052 5.69437 21.2253 5.44033 20.5771 5.11799C20.0974 4.74681 19.7074 4.27242 19.4361 3.72999C19.0761 3.07607 18.6097 2.48668 18.0561 1.98599C15.5911 0.0209874 4.49597 -0.195013 2.76297 0.180987C2.70558 0.19338 2.6534 0.222836 2.61306 0.26549C2.57273 0.308145 2.54618 0.362001 2.53701 0.419986L0.689968 12.093V12.105C0.398968 14.148 0.469069 14.245 0.769069 14.291C0.798069 14.297 0.800058 14.297 4.73306 14.303C4.65123 15.0852 4.87394 15.8688 5.35501 16.491C5.59028 16.7316 5.87468 16.9186 6.18875 17.0394C6.50281 17.1602 6.83911 17.2119 7.17495 17.191C7.63658 17.2063 8.09557 17.1142 8.51553 16.922C8.93549 16.7297 9.30499 16.4425 9.595 16.083C10.0124 15.548 10.2988 14.9226 10.4311 14.257H17.5041C17.5861 15.737 18.3041 17.215 20.1341 17.215C22.3941 17.215 23.181 15.064 23.382 14.336C24.067 14.327 26.074 14.299 26.151 14.299C26.3 14.299 26.576 14.234 26.751 13.799C27.0045 13.1109 26.9765 12.3506 26.673 11.683ZM12.235 7.22098L12.85 2.28899C18.772 2.28899 18.95 7.22098 18.95 7.22098H12.235Z" fill="#696158"/>
</svg>
